# xmcd
#
# Track frame offsets:
#	150
#	17324
#	45269
#	67834
#	90603
#
# Disc length: 1512 seconds
#
# Revision: 0
# Processed by: cddbd v1.5.2PL0 Copyright (c) Steve Scherf et al.
# Submitted via: EasyCDDAExtractor 16.0.1.1
#
DISCID=2805e605
DTITLE=Yannick Rodony - Ki Manniè Ou Lé Sa
DYEAR=1988
DGENRE=Zouk
TTITLE0=Ki Manniè Ou Lé Sa
TTITLE1=Jodi A
TTITLE2=Mélody
TTITLE3=Boulmada
TTITLE4=Fow Sav' Sa
EXTD=
EXTT0=
EXTT1=
EXTT2=
EXTT3=
EXTT4=
PLAYORDER=
